<?xml version="1.0" standalone="no"?>
<!DOCTYPE svg PUBLIC "-//W3C//DTD SVG 20010904//EN"
 "http://www.w3.org/TR/2001/REC-SVG-20010904/DTD/svg10.dtd">
<svg version="1.0" xmlns="http://www.w3.org/2000/svg"
 width="800.000000pt" height="416.000000pt" viewBox="0 0 800.000000 416.000000"
 preserveAspectRatio="xMidYMid meet">

<g transform="translate(0.000000,416.000000) scale(0.100000,-0.100000)"
fill="#000000" stroke="none">
<path d="M1061 3761 c-29 -29 -51 -76 -81 -171 -27 -83 -27 -84 -35 -50 -16
73 -88 180 -122 180 -7 0 -21 -12 -30 -27 -14 -22 -18 -49 -18 -135 0 -59 -1
-108 -2 -108 -1 0 -9 13 -17 29 -24 45 -75 91 -101 91 -42 0 -50 -31 -49 -189
l2 -143 -32 58 c-35 63 -76 100 -100 91 -28 -11 -39 -84 -33 -227 3 -74 9
-144 13 -155 4 -11 -16 4 -45 33 -54 54 -88 65 -112 36 -37 -45 -28 -283 18
-439 4 -15 -4 -11 -36 18 -47 43 -84 48 -105 15 -40 -63 -47 -561 -12 -783
121 -747 448 -1241 925 -1400 79 -26 87 -9 25 57 -95 101 -131 229 -101 354
19 75 62 157 80 151 8 -2 14 -39 17 -98 6 -104 21 -141 70 -183 39 -32 68 -40
127 -33 31 3 53 13 72 31 l26 27 -28 -10 c-79 -30 -167 4 -199 77 -17 37 -20
59 -15 118 12 161 89 231 166 152 17 -18 37 -49 43 -70 6 -20 21 -47 34 -59
21 -19 27 -21 49 -11 37 17 54 68 63 185 l7 102 49 0 c31 0 50 -4 53 -13 3 -7
-7 -40 -22 -74 -35 -77 -44 -171 -22 -214 9 -17 32 -50 52 -74 44 -52 70 -103
79 -150 7 -40 -16 -141 -41 -179 -16 -25 -5 -22 30 7 9 8 19 13 21 11 23 -25
56 -87 56 -105 0 -32 18 -31 26 1 8 33 -2 69 -32 115 -23 34 -24 42 -15 77 26
91 10 148 -64 233 -26 30 -54 69 -61 87 -22 51 -18 123 11 179 14 27 25 63 25
81 0 17 4 35 10 38 15 9 12 41 -5 55 -8 7 -15 23 -15 36 0 15 -10 30 -27 41
-39 23 -63 54 -63 80 0 42 -85 74 -113 43 -9 -10 -9 -11 0 -6 25 14 72 -22 83
-63 5 -21 17 -44 25 -51 21 -17 45 -69 45 -96 0 -52 -81 -52 -130 1 -33 36
-81 34 -120 -5 -17 -17 -34 -30 -39 -30 -20 0 -42 42 -57 106 -30 128 -48 178
-78 212 -30 34 -31 34 -93 28 -58 -6 -65 -5 -87 18 -38 37 -57 116 -63 267
-10 226 16 389 117 738 90 314 124 482 136 665 10 165 -21 361 -67 419 -24 32
-42 34 -68 8z m111 -2196 c60 -109 77 -310 31 -356 -70 -71 -153 81 -157 284
-1 83 1 90 23 108 40 33 72 22 103 -36z"/>
<path d="M2230 1762 c-42 -21 -80 -75 -80 -114 l0 -30 153 4 c125 2 157 6 178
21 32 21 49 57 49 102 l0 35 -132 0 c-107 0 -140 -4 -168 -18z"/>
<path d="M4430 1542 c-30 -15 -75 -83 -337 -517 -166 -275 -311 -517 -323
-537 l-21 -38 130 0 130 0 129 218 c71 119 175 295 232 391 l102 173 99 -167
c55 -92 99 -169 99 -171 0 -2 -25 -4 -56 -4 -138 0 -227 -60 -247 -167 l-6
-33 217 0 217 0 70 -120 70 -120 138 0 c75 0 137 2 137 5 0 2 -143 242 -318
532 -325 539 -349 573 -406 573 -12 0 -37 -8 -56 -18z"/>
<path d="M2150 995 l0 -546 113 3 112 3 0 540 0 540 -112 3 -113 3 0 -546z"/>
<path d="M2926 1524 c-179 -43 -323 -187 -371 -371 -19 -73 -19 -210 0 -292
42 -175 170 -319 340 -383 57 -21 76 -22 413 -26 l352 -3 0 115 0 115 -332 3
-333 3 -57 28 c-64 32 -111 80 -142 146 -30 65 -30 207 0 272 30 63 79 116
138 147 l51 27 335 5 335 5 3 113 3 112 -338 -1 c-255 0 -352 -4 -397 -15z"/>
<path d="M5306 1524 c-3 -9 -6 -254 -6 -545 l0 -529 115 0 115 0 0 413 c0 318
3 417 13 431 11 15 37 17 304 14 276 -3 293 -4 319 -24 52 -39 68 -70 72 -142
3 -56 0 -74 -20 -111 -40 -75 -71 -85 -283 -91 -107 -3 -188 -10 -200 -17 -52
-30 -95 -97 -95 -149 l0 -24 168 0 167 0 118 -130 c64 -71 132 -137 150 -147
25 -14 63 -18 175 -21 78 -2 142 0 142 4 0 5 -70 79 -156 165 l-157 157 39 20
c49 25 116 95 142 147 66 132 49 334 -38 454 -17 22 -54 56 -82 75 -95 63
-124 66 -584 66 -366 0 -413 -2 -418 -16z"/>
<path d="M7000 1525 c-93 -26 -179 -74 -239 -134 -68 -69 -105 -135 -131 -237
-67 -263 47 -533 274 -644 44 -22 105 -45 135 -50 86 -16 445 -12 519 5 232
55 391 250 408 503 17 256 -110 458 -344 544 -51 20 -82 22 -312 25 -202 2
-266 -1 -310 -12z m555 -245 c66 -32 121 -90 154 -159 53 -114 26 -267 -63
-353 -77 -75 -106 -82 -333 -86 -161 -3 -214 0 -256 12 -198 58 -279 313 -156
492 34 50 73 79 137 105 41 17 72 19 257 16 200 -2 212 -3 260 -27z"/>
<path d="M1408 1488 c0 -7 -2 -17 -2 -23 -1 -5 -4 -14 -8 -20 -3 -6 8 -10 28
-11 20 0 29 3 22 7 -7 4 -13 18 -13 30 0 24 -24 39 -27 17z"/>
<path d="M1627 773 c5 -67 4 -73 -20 -97 -30 -30 -73 -34 -117 -11 -17 9 -30
11 -30 5 0 -16 38 -49 65 -56 46 -11 22 -85 -40 -124 -67 -41 -40 -59 68 -44
l45 6 -5 52 c-3 40 0 59 17 86 50 84 62 121 55 166 -3 24 -15 53 -25 66 -19
23 -19 23 -13 -49z"/>
</g>
</svg>
